if (_typeface_js && _typeface_js.loadFace) _typeface_js.loadFace({"glyphs":{"S":{"x_min":54.453125,"x_max":789.859375,"ha":821,"o":"m 624 749 q 602 838 624 808 q 554 884 580 868 q 496 908 528 900 q 434 917 465 917 q 344 905 382 917 q 280 872 305 893 q 241 825 254 852 q 229 768 229 798 q 244 696 229 723 q 285 652 260 668 q 339 626 309 635 q 395 607 368 616 l 532 562 q 641 517 594 542 q 720 458 688 492 q 769 379 752 424 q 786 275 786 334 q 759 157 786 211 q 686 63 733 103 q 575 0 640 23 q 433 -22 510 -22 q 297 -4 353 -22 q 203 44 241 13 q 141 112 164 74 q 106 192 118 151 l 54 192 l 54 309 l 225 309 q 240 202 225 233 q 285 150 256 171 q 353 119 313 130 q 439 109 392 109 q 523 119 486 109 q 586 151 559 130 q 626 201 612 172 q 640 268 640 231 q 622 338 640 309 q 578 387 605 367 q 518 420 551 407 q 456 443 486 433 l 308 485 q 219 523 259 500 q 150 579 178 546 q 105 657 121 612 q 90 759 90 701 q 113 870 90 818 q 180 960 136 921 q 290 1020 225 998 q 438 1043 355 1043 q 540 1030 493 1043 q 624 994 586 1017 q 690 937 661 970 q 739 866 719 905 l 789 866 l 789 749 l 624 749 "},"/":{"x_min":25,"x_max":550.1875,"ha":575,"o":"m 432 1064 l 550 1064 l 143 -20 l 25 -20 l 432 1064 "},"K":{"x_min":97.640625,"x_max":1014,"ha":1063,"o":"m 777 910 l 777 1028 l 1014 1028 l 1014 911 l 933 911 l 483 531 l 904 117 l 1014 117 l 1014 0 l 737 0 l 737 116 l 328 524 l 777 910 m 99 1028 l 432 1028 l 432 911 l 328 911 l 328 117 l 431 117 l 431 0 l 97 0 l 97 117 l 195 117 l 195 911 l 99 911 l 99 1028 "},"7":{"x_min":28,"x_max":702.375,"ha":730,"o":"m 123 117 l 203 117 q 283 328 239 221 q 373 537 327 436 q 462 731 418 639 q 543 897 506 823 l 158 897 l 158 817 l 28 817 l 28 1028 l 702 1028 l 702 926 q 608 739 657 838 q 512 537 560 640 q 420 327 464 433 q 338 117 375 220 l 423 117 l 423 0 l 123 0 l 123 117 "},"d":{"x_min":62,"x_max":807,"ha":860,"o":"m 482 1055 l 704 1055 l 704 117 l 807 117 l 807 0 l 578 0 l 578 57 q 499 3 544 23 q 397 -16 454 -16 q 264 8 326 -16 q 158 81 203 33 q 87 198 112 129 q 62 358 62 268 q 86 506 62 439 q 155 620 110 573 q 263 693 200 667 q 404 720 326 720 q 497 708 455 720 q 578 669 539 697 l 578 938 l 482 938 l 482 1055 m 413 94 q 508 110 470 94 q 578 160 546 127 l 578 554 q 499 596 544 583 q 409 609 455 609 q 325 592 364 609 q 256 543 286 575 q 209 465 226 511 q 193 359 193 419 q 209 244 193 294 q 254 161 225 195 q 324 110 283 127 q 413 94 365 94 "},",":{"x_min":14,"x_max":289.359375,"ha":388,"o":"m 140 192 l 289 133 l 112 -231 l 14 -195 l 140 192 "},"Y":{"x_min":35,"x_max":898,"ha":919,"o":"m 35 1028 l 368 1028 l 368 911 l 271 911 l 464 581 l 671 911 l 563 911 l 563 1028 l 898 1028 l 898 911 l 810 911 l 520 472 l 521 117 l 627 117 l 627 0 l 293 0 l 293 117 l 387 117 l 387 475 l 115 911 l 35 911 l 35 1028 "},"E":{"x_min":97,"x_max":833,"ha":872,"o":"m 97 1028 l 833 1028 l 833 737 l 694 737 l 694 911 l 328 911 l 328 582 l 636 582 l 636 465 l 328 465 l 328 117 l 694 117 l 694 290 l 833 290 l 833 0 l 97 0 l 97 117 l 195 117 l 195 911 l 97 911 l 97 1028 "},"y":{"x_min":21.03125,"x_max":724.796875,"ha":798,"o":"m 21 703 l 287 703 l 287 586 l 204 586 l 368 138 l 541 586 l 458 586 l 458 703 l 724 703 l 724 586 l 652 586 l 340 -202 l 436 -202 l 436 -319 l 152 -319 l 152 -202 l 238 -202 l 311 -10 l 78 586 l 21 586 l 21 703 "},"\"":{"x_min":28,"x_max":429.875,"ha":441,"o":"m 170 718 l 55 718 l 28 1069 l 182 1069 l 170 718 m 398 718 l 283 718 l 274 1069 l 429 1069 l 398 718 "},"‹":{"x_min":69,"x_max":348.21875,"ha":417,"o":"m 348 117 l 218 117 l 69 383 l 218 650 l 348 650 l 193 383 l 348 117 "},"„":{"x_min":14,"x_max":601.359375,"ha":683,"o":"m 140 192 l 289 133 l 112 -231 l 14 -195 l 140 192 m 452 192 l 601 133 l 424 -231 l 326 -195 l 452 192 "},"g":{"x_min":62,"x_max":708,"ha":814,"o":"m 582 61 q 501 4 547 24 q 397 -16 455 -16 q 264 8 326 -16 q 158 81 203 33 q 87 198 112 129 q 62 358 62 268 q 86 506 62 439 q 155 620 110 573 q 263 693 200 667 q 404 720 326 720 q 499 708 456 720 q 581 667 541 696 l 581 703 l 708 703 l 708 27 q 628 -224 708 -139 q 382 -310 549 -310 q 306 -304 346 -310 q 227 -287 266 -299 q 151 -257 188 -275 q 83 -212 114 -239 l 150 -110 q 197 -142 171 -127 q 253 -168 223 -157 q 315 -184 283 -178 q 379 -191 347 -191 q 469 -180 431 -191 q 532 -141 508 -169 q 569 -67 557 -114 q 582 51 582 -20 l 582 61 m 413 94 q 470 100 444 94 q 517 116 496 106 q 554 138 538 125 q 582 166 570 151 l 582 551 q 502 595 547 581 q 409 609 457 609 q 325 592 364 609 q 256 543 286 575 q 209 465 226 511 q 193 359 193 419 q 209 244 193 294 q 254 161 225 195 q 324 110 283 127 q 413 94 365 94 "},"–":{"x_min":0,"x_max":695,"ha":695,"o":"m 0 439 l 695 439 l 695 329 l 0 329 l 0 439 "},"e":{"x_min":62,"x_max":693,"ha":797,"o":"m 187 335 q 191 280 187 305 q 203 233 195 255 q 284 131 229 165 q 409 97 339 97 q 516 112 464 97 q 625 160 568 127 l 675 73 q 536 3 606 26 q 391 -20 467 -20 q 259 3 320 -20 q 155 74 199 27 q 86 191 111 121 q 62 353 62 260 q 83 496 62 429 q 145 612 104 562 q 249 691 187 662 q 393 721 311 721 q 525 696 472 721 q 612 633 579 672 q 663 542 646 593 q 687 438 680 491 q 691 386 690 413 q 693 335 693 360 l 187 335 m 384 615 q 307 602 340 615 q 251 566 274 589 q 214 509 228 543 q 193 433 200 475 l 558 433 q 545 505 555 472 q 515 563 535 538 q 463 601 494 587 q 384 615 431 615 "},"J":{"x_min":69.53125,"x_max":435,"ha":463,"o":"m 102 1028 l 435 1028 l 435 911 l 349 911 l 349 117 q 341 82 349 102 q 323 39 334 62 q 297 -6 312 17 q 267 -51 282 -29 q 186 -161 231 -104 l 69 -150 q 141 -34 109 -89 q 167 14 155 -10 q 190 62 180 39 q 207 105 201 85 q 214 139 214 125 l 214 911 l 102 911 l 102 1028 "},"|":{"x_min":103,"x_max":208,"ha":308,"o":"m 103 1171 l 208 1171 l 208 -183 l 103 -183 l 103 1171 "},"^":{"x_min":106,"x_max":728.96875,"ha":834,"o":"m 456 1026 l 728 490 l 632 490 l 418 914 l 202 490 l 106 490 l 379 1026 l 456 1026 "},"q":{"x_min":62,"x_max":806.796875,"ha":818,"o":"m 473 -202 l 575 -202 l 575 54 q 496 2 541 21 q 397 -16 452 -16 q 264 8 325 -16 q 158 81 203 33 q 87 198 112 129 q 62 358 62 268 q 86 506 62 439 q 155 620 110 573 q 263 693 200 667 q 403 720 326 720 q 495 708 454 720 q 574 671 536 697 l 574 703 l 701 703 l 701 -202 l 806 -202 l 806 -319 l 473 -319 l 473 -202 m 413 94 q 511 113 471 94 q 575 157 551 132 l 575 556 q 497 596 541 584 q 409 609 454 609 q 325 592 364 609 q 256 543 285 575 q 209 464 226 511 q 193 359 193 418 q 209 244 193 294 q 254 161 225 195 q 324 110 283 127 q 413 94 365 94 "},"b":{"x_min":38,"x_max":788,"ha":850,"o":"m 38 1055 l 266 1055 l 266 644 q 363 699 310 679 q 473 720 417 720 q 600 694 542 720 q 700 621 658 668 q 764 509 741 574 q 788 364 788 443 q 762 210 788 279 q 690 92 736 141 q 581 15 644 42 q 442 -11 518 -11 q 344 4 390 -11 q 266 44 298 19 l 266 0 l 140 0 l 140 938 l 38 938 l 38 1055 m 440 609 q 344 588 390 609 q 266 533 299 568 l 266 155 q 329 115 287 132 q 436 98 372 98 q 519 114 479 98 q 590 163 560 130 q 639 245 621 196 q 658 359 658 294 q 640 465 658 419 q 593 543 623 511 q 524 592 564 575 q 440 609 485 609 "},"D":{"x_min":97,"x_max":974,"ha":1022,"o":"m 97 1028 l 479 1028 q 613 1009 550 1028 q 732 958 677 991 q 832 878 787 924 q 908 775 877 832 q 957 652 940 718 q 974 516 974 587 q 957 379 974 444 q 908 255 940 313 q 832 150 877 198 q 732 70 787 103 q 613 18 677 36 q 479 0 550 0 l 97 0 l 97 117 l 195 117 l 195 911 l 97 911 l 97 1028 m 328 911 l 328 117 l 487 117 q 621 148 559 117 q 731 233 684 179 q 804 359 777 287 q 832 516 832 432 q 804 671 832 599 q 731 796 777 743 q 621 880 684 849 q 487 911 559 911 l 328 911 "},"∙":{"x_min":118,"x_max":294,"ha":415,"o":"m 118 451 q 125 485 118 469 q 144 512 132 501 q 172 531 155 524 q 206 539 188 539 q 240 531 224 539 q 267 512 256 524 q 286 485 279 501 q 294 451 294 469 q 286 416 294 433 q 267 388 279 400 q 240 368 256 375 q 206 361 224 361 q 172 368 188 361 q 144 388 155 375 q 125 416 132 400 q 118 451 118 433 "},"z":{"x_min":52,"x_max":577,"ha":627,"o":"m 52 78 l 408 598 l 184 598 l 184 499 l 59 499 l 59 703 l 561 703 l 561 623 l 207 106 l 446 106 l 446 225 l 577 225 l 577 0 l 52 0 l 52 78 "},"w":{"x_min":14,"x_max":1070,"ha":1112,"o":"m 14 703 l 237 703 l 237 586 l 203 586 l 327 137 l 493 703 l 600 703 l 760 138 l 888 586 l 854 586 l 854 703 l 1070 703 l 1070 586 l 1010 586 l 817 -11 l 700 -11 l 541 550 l 384 -11 l 265 -11 l 74 586 l 14 586 l 14 703 "},"$":{"x_min":102.0625,"x_max":720.234375,"ha":821,"o":"m 350 -126 l 350 92 q 243 133 282 102 q 182 205 205 164 l 102 205 l 102 322 l 272 322 l 272 314 l 273 315 q 311 231 273 260 q 424 203 349 203 q 532 229 492 203 q 572 304 572 255 q 558 346 572 329 q 525 374 545 363 q 480 392 505 385 q 434 405 456 399 l 314 437 q 243 464 275 447 q 187 505 210 480 q 150 562 163 529 q 138 640 138 596 q 152 713 138 679 q 193 772 166 747 q 260 815 220 798 q 350 840 299 832 l 350 1071 l 484 1071 l 484 839 q 583 802 541 829 q 651 739 625 776 l 720 739 l 720 622 l 578 622 l 562 620 l 562 622 l 561 622 l 561 637 q 517 708 554 681 q 418 736 480 736 q 305 711 344 736 q 267 645 267 687 q 279 600 267 617 q 311 572 292 583 q 352 556 330 562 q 396 544 375 550 l 514 508 q 595 478 559 495 q 655 437 630 460 q 692 383 679 414 q 706 311 706 353 q 690 233 706 269 q 644 168 674 196 q 574 119 615 139 q 484 92 533 100 l 484 -126 l 350 -126 "},"\\":{"x_min":27.8125,"x_max":615.140625,"ha":643,"o":"m 27 1072 l 137 1072 l 615 -16 l 505 -16 l 27 1072 "},"’":{"x_min":62,"x_max":336,"ha":411,"o":"m 187 1061 l 336 1002 l 160 639 l 62 674 l 187 1061 "},"~":{"x_min":96,"x_max":738,"ha":834,"o":"m 96 327 q 167 415 126 384 q 269 447 209 447 q 350 431 309 447 q 431 398 392 416 q 505 365 471 380 q 566 350 540 350 q 625 373 595 350 q 688 453 654 396 l 738 375 q 666 287 707 318 q 564 256 625 256 q 510 263 537 256 q 456 281 483 270 q 402 304 428 291 q 352 327 376 317 q 306 345 328 338 q 268 353 285 353 q 209 329 239 353 q 146 250 180 306 l 96 327 "},"-":{"x_min":64,"x_max":438,"ha":500,"o":"m 64 336 l 64 453 l 438 453 l 438 336 l 64 336 "},"Q":{"x_min":49,"x_max":1035,"ha":1083,"o":"m 473 -16 q 300 43 378 -3 q 165 160 221 89 q 79 321 110 230 q 49 514 49 412 q 85 723 49 625 q 187 893 121 821 q 342 1007 252 965 q 542 1049 433 1049 q 742 1007 651 1049 q 898 893 832 965 q 999 723 963 821 q 1035 514 1035 625 q 1003 320 1035 411 q 914 158 971 228 q 778 40 858 87 q 603 -16 699 -5 q 674 -43 647 -28 q 740 -79 700 -59 q 820 -100 780 -100 q 889 -80 859 -100 q 929 -21 919 -61 l 1032 -68 q 1002 -134 1024 -106 q 950 -182 980 -163 q 887 -211 921 -202 q 820 -221 853 -221 q 722 -201 768 -221 q 626 -155 676 -182 q 530 -128 576 -128 q 473 -137 502 -128 l 473 -16 m 541 106 q 688 139 622 106 q 799 228 753 172 q 870 358 845 284 q 896 514 896 432 q 868 676 896 598 q 791 809 841 754 q 678 893 741 863 q 541 923 615 923 q 395 889 461 923 q 283 800 329 856 q 212 670 237 744 q 187 514 187 595 q 214 346 187 421 q 287 222 241 272 q 400 139 332 172 q 541 106 467 106 "},"M":{"x_min":97,"x_max":1388,"ha":1485,"o":"m 97 117 l 195 117 l 195 898 l 97 898 l 97 1028 l 422 1028 l 748 140 l 1079 1028 l 1387 1028 l 1387 898 l 1291 898 l 1291 117 l 1388 117 l 1388 0 l 1054 0 l 1054 117 l 1164 117 l 1164 905 l 804 0 l 688 0 l 325 908 l 325 117 l 430 117 l 430 0 l 97 0 l 97 117 "},"C":{"x_min":49,"x_max":980.03125,"ha":1023,"o":"m 826 757 q 706 878 781 834 q 538 923 631 923 q 395 889 460 923 q 283 800 330 856 q 211 670 237 744 q 186 515 186 597 q 214 345 186 419 q 288 221 242 271 q 397 139 334 172 q 538 107 460 107 q 725 158 646 107 q 861 329 804 210 l 980 272 q 892 131 954 199 q 740 21 830 63 q 540 -20 650 -20 q 347 19 435 -20 q 190 132 259 59 q 85 306 121 205 q 49 515 49 406 q 85 723 49 625 q 186 893 121 821 q 342 1007 252 965 q 538 1049 433 1049 q 701 1022 633 1049 q 817 958 769 995 q 900 878 865 921 l 971 878 l 971 757 l 826 757 "},"[":{"x_min":161,"x_max":435,"ha":489,"o":"m 161 1157 l 435 1157 l 435 1055 l 286 1055 l 286 -153 l 435 -153 l 435 -256 l 161 -256 l 161 1157 "},"L":{"x_min":97,"x_max":872,"ha":879,"o":"m 97 1028 l 431 1028 l 431 911 l 328 911 l 328 117 l 682 117 q 703 122 692 117 q 723 135 714 127 q 737 153 732 143 q 743 175 743 164 l 743 304 l 872 304 l 872 0 l 97 0 l 97 117 l 195 117 l 195 911 l 97 911 l 97 1028 "},"!":{"x_min":143,"x_max":319,"ha":462,"o":"m 143 82 q 150 115 143 100 q 169 143 157 131 q 197 162 181 155 q 231 170 213 170 q 265 162 249 170 q 293 143 281 155 q 312 115 305 131 q 319 82 319 100 q 312 47 319 64 q 293 18 305 31 q 265 0 281 6 q 231 -8 249 -8 q 197 0 213 -8 q 169 18 181 6 q 150 47 157 31 q 143 82 143 64 m 143 1070 l 319 1070 l 291 279 l 171 279 l 143 1070 "}," ":{"x_min":0,"x_max":0,"ha":304,"o":"m 0 0 q 0 0 0 0 "},"{":{"x_min":90,"x_max":440,"ha":489,"o":"m 90 490 q 139 505 118 490 q 175 546 161 521 q 196 604 189 572 q 204 671 204 637 l 204 977 q 216 1053 204 1020 q 249 1110 229 1087 q 294 1145 269 1133 q 347 1157 320 1157 l 440 1157 l 440 1072 l 393 1072 q 342 1036 356 1072 q 329 936 329 1000 l 329 646 q 320 571 329 604 q 296 514 311 539 q 260 473 280 490 q 215 448 239 457 l 215 445 q 260 420 239 437 q 296 380 280 404 q 320 322 311 355 q 329 248 329 289 l 329 -35 q 342 -134 329 -98 q 393 -170 356 -170 l 440 -170 l 440 -256 l 347 -256 q 294 -244 320 -256 q 249 -209 269 -232 q 216 -152 229 -186 q 204 -76 204 -119 l 204 223 q 196 289 204 257 q 175 347 189 321 q 139 388 161 372 q 90 404 118 404 l 90 490 "},"X":{"x_min":116,"x_max":978,"ha":1017,"o":"m 644 1028 l 978 1028 l 978 911 l 902 911 l 624 525 l 914 117 l 978 117 l 978 0 l 643 0 l 643 117 l 768 117 l 549 422 l 330 117 l 450 117 l 450 0 l 116 0 l 116 117 l 183 117 l 475 525 l 199 911 l 116 911 l 116 1028 l 449 1028 l 449 911 l 350 911 l 550 629 l 752 911 l 644 911 l 644 1028 "},"P":{"x_min":97,"x_max":830,"ha":863,"o":"m 97 1028 l 513 1028 q 640 1010 582 1028 q 740 957 698 992 q 806 870 783 922 q 830 750 830 818 q 806 644 830 694 q 741 557 783 594 q 641 498 699 520 q 510 477 582 477 l 328 477 l 328 117 l 431 117 l 431 0 l 97 0 l 97 117 l 195 117 l 195 911 l 97 911 l 97 1028 m 328 911 l 328 588 l 513 588 q 584 598 552 588 q 640 629 616 608 q 676 680 663 649 q 690 750 690 710 q 643 868 690 826 q 496 911 597 911 l 328 911 "},"%":{"x_min":51,"x_max":1102,"ha":1173,"o":"m 51 791 q 67 878 51 837 q 115 950 84 919 q 189 999 146 981 q 283 1017 232 1017 q 376 999 333 1017 q 449 950 419 981 q 497 878 480 919 q 515 791 515 837 q 498 705 515 745 q 451 633 481 664 q 377 583 420 601 q 283 566 335 566 q 187 583 230 566 q 114 633 144 601 q 67 705 84 664 q 51 791 51 745 m 283 906 q 237 897 258 906 q 200 873 216 889 q 175 837 184 858 q 166 791 166 816 q 175 746 166 768 q 200 709 184 725 q 237 684 216 693 q 283 675 258 675 q 327 684 306 675 q 364 708 348 693 q 388 746 379 724 q 398 791 398 767 q 388 837 398 816 q 364 873 379 858 q 327 897 348 889 q 283 906 306 906 m 849 1044 l 981 1044 l 276 -11 l 144 -11 l 849 1044 m 638 219 q 654 305 638 265 q 702 377 671 346 q 776 426 733 408 q 870 445 819 445 q 963 426 920 445 q 1037 377 1006 408 q 1085 305 1068 346 q 1102 219 1102 265 q 1085 132 1102 173 q 1038 60 1068 91 q 965 11 1008 29 q 870 -7 922 -7 q 774 11 817 -7 q 701 60 731 29 q 654 132 671 91 q 638 219 638 173 m 869 334 q 824 325 845 334 q 787 301 803 316 q 762 265 771 285 q 753 219 753 244 q 762 174 753 196 q 787 137 771 153 q 824 112 803 121 q 869 103 845 103 q 914 112 893 103 q 951 136 935 121 q 975 174 966 152 q 985 219 985 195 q 975 265 985 244 q 951 301 966 285 q 914 325 935 316 q 869 334 893 334 "},"#":{"x_min":13.765625,"x_max":937.078125,"ha":965,"o":"m 115 813 l 286 813 l 329 1028 l 458 1028 l 416 813 l 655 813 l 697 1028 l 827 1028 l 785 813 l 937 813 l 910 678 l 758 678 l 703 396 l 865 396 l 840 264 l 677 264 l 626 0 l 496 0 l 547 264 l 309 264 l 258 0 l 125 0 l 177 264 l 13 264 l 41 396 l 203 396 l 259 678 l 87 678 l 115 813 m 335 396 l 573 396 l 628 678 l 390 678 l 335 396 "},"_":{"x_min":0,"x_max":695,"ha":695,"o":"m 0 -104 l 695 -104 l 695 -173 l 0 -173 l 0 -104 "},"+":{"x_min":97,"x_max":791.203125,"ha":889,"o":"m 97 536 l 382 536 l 382 820 l 505 820 l 505 536 l 791 536 l 791 412 l 505 412 l 505 126 l 382 126 l 382 412 l 97 412 l 97 536 "},")":{"x_min":36.1875,"x_max":394,"ha":490,"o":"m 36 -230 q 131 -87 89 -162 q 201 67 173 -12 q 245 231 230 147 q 260 400 260 315 q 245 568 260 485 q 201 732 230 652 q 131 888 173 812 q 36 1031 89 963 l 129 1106 q 239 946 190 1030 q 322 773 288 862 q 375 590 357 684 q 394 400 394 496 q 375 210 394 303 q 322 26 357 116 q 239 -146 288 -62 q 129 -306 190 -230 l 36 -230 "},"'":{"x_min":25,"x_max":179,"ha":231,"o":"m 146 719 l 25 719 l 25 1070 l 179 1080 l 146 719 "},"}":{"x_min":49,"x_max":399,"ha":489,"o":"m 49 -256 l 49 -170 l 95 -170 q 146 -134 132 -170 q 160 -35 160 -98 l 160 248 q 168 322 160 289 q 192 380 177 355 q 228 420 208 404 q 273 445 249 437 l 273 448 q 228 473 249 457 q 192 514 208 490 q 168 571 177 539 q 160 646 160 604 l 160 936 q 146 1036 160 1000 q 95 1072 132 1072 l 49 1072 l 49 1157 l 141 1157 q 194 1145 168 1157 q 239 1110 219 1133 q 272 1053 259 1087 q 285 977 285 1020 l 285 671 q 292 604 285 637 q 313 546 299 572 q 349 505 327 521 q 399 490 370 490 l 399 404 q 349 388 370 404 q 313 347 327 372 q 292 289 299 321 q 285 223 285 257 l 285 -76 q 272 -152 285 -119 q 239 -209 259 -186 q 194 -244 219 -232 q 141 -256 168 -256 l 49 -256 "},"a":{"x_min":47,"x_max":685,"ha":760,"o":"m 481 65 q 392 3 441 27 q 282 -20 344 -20 q 187 -3 230 -20 q 112 40 144 12 q 64 105 81 68 q 47 185 47 143 q 60 264 47 229 q 95 324 73 298 q 147 366 117 349 q 209 394 176 384 q 275 409 241 405 q 339 414 308 414 q 421 410 388 414 q 482 402 454 407 l 482 460 q 471 525 482 497 q 441 571 460 553 q 394 598 421 589 q 332 607 366 607 q 271 602 300 607 q 216 591 242 598 q 169 574 191 583 q 133 555 148 565 l 92 642 q 146 672 117 658 q 209 696 176 686 q 276 712 242 706 q 344 718 311 718 q 454 703 405 718 q 537 658 503 688 q 589 580 571 627 q 607 467 607 533 l 607 117 l 685 117 l 685 0 l 481 0 l 481 65 m 309 86 q 360 92 335 86 q 407 108 385 98 q 449 133 430 119 q 481 161 468 146 l 482 320 l 335 320 q 268 311 298 320 q 215 288 237 303 q 181 249 193 272 q 169 196 169 226 q 179 148 169 169 q 208 114 189 127 q 252 93 226 100 q 309 86 278 86 "},"T":{"x_min":28,"x_max":945,"ha":973,"o":"m 308 117 l 402 117 l 402 917 l 167 917 l 167 757 l 28 757 l 28 1028 l 945 1028 l 945 757 l 806 757 l 806 917 l 535 917 l 535 117 l 641 117 l 641 0 l 308 0 l 308 117 "},"—":{"x_min":0,"x_max":1389,"ha":1389,"o":"m 0 439 l 1389 439 l 1389 329 l 0 329 l 0 439 "},"=":{"x_min":58,"x_max":567,"ha":625,"o":"m 58 303 l 567 303 l 567 207 l 58 207 l 58 303 m 58 532 l 567 532 l 567 436 l 58 436 l 58 532 "},"N":{"x_min":97.28125,"x_max":1066,"ha":1101,"o":"m 732 1028 l 1066 1028 l 1066 911 l 979 911 l 979 0 l 806 0 l 328 853 l 328 117 l 433 117 l 433 0 l 100 0 l 100 117 l 195 117 l 195 911 l 97 911 l 97 1030 l 374 1030 l 844 185 l 848 217 l 848 911 l 732 911 l 732 1028 "},"⁄":{"x_min":-29,"x_max":970.90625,"ha":949,"o":"m 836 1070 l 970 1070 l 105 -41 l -29 -41 l 836 1070 "},"2":{"x_min":58,"x_max":664,"ha":746,"o":"m 60 100 l 421 536 q 459 583 440 558 q 496 636 479 608 q 524 694 513 663 q 536 756 536 724 q 522 820 536 790 q 485 872 508 850 q 428 908 461 895 q 356 921 395 921 q 289 909 321 921 q 234 876 257 898 q 195 822 210 855 q 180 748 181 790 l 58 748 q 83 867 58 813 q 148 962 107 922 q 243 1023 189 1001 q 357 1046 298 1046 q 483 1023 427 1046 q 579 963 539 1001 q 641 871 619 924 q 664 756 664 818 q 658 704 664 732 q 638 645 652 677 q 602 578 624 614 q 545 501 579 542 l 224 119 l 663 119 l 663 0 l 60 0 l 60 100 "},"j":{"x_min":41.703125,"x_max":302,"ha":410,"o":"m 57 703 l 285 703 l 285 -54 q 269 -163 285 -114 q 224 -245 253 -211 q 152 -299 194 -280 q 54 -319 109 -318 l 41 -225 q 129 -167 102 -216 q 157 -40 157 -119 l 157 586 l 57 586 l 57 703 m 141 951 q 147 982 141 968 q 164 1007 153 996 q 190 1024 175 1018 q 221 1031 204 1031 q 252 1024 237 1031 q 277 1007 266 1018 q 295 982 288 996 q 302 951 302 968 q 295 920 302 934 q 277 894 288 905 q 252 876 266 882 q 221 870 237 870 q 190 876 204 870 q 164 894 175 882 q 147 920 153 905 q 141 951 141 934 "},"Z":{"x_min":35,"x_max":788.78125,"ha":824,"o":"m 788 876 l 170 117 l 651 117 l 651 287 l 784 287 l 784 0 l 35 0 l 35 154 l 645 911 l 179 911 l 179 737 l 46 737 l 46 1028 l 788 1028 l 788 876 "},"u":{"x_min":41,"x_max":796,"ha":916,"o":"m 492 703 l 718 703 l 718 117 l 796 117 l 796 0 l 591 0 l 591 65 q 487 8 543 28 q 367 -12 431 -12 q 272 3 315 -12 q 198 50 228 18 q 152 132 168 82 q 136 250 136 181 l 136 586 l 41 586 l 41 703 l 268 703 l 268 265 q 305 143 268 184 q 412 102 342 102 q 499 116 453 102 q 586 158 545 131 l 586 586 l 492 586 l 492 703 "},"1":{"x_min":56,"x_max":497,"ha":582,"o":"m 164 117 l 264 117 l 264 869 l 56 755 l 56 897 l 342 1057 l 396 1057 l 396 117 l 497 117 l 497 0 l 164 0 l 164 117 "},"›":{"x_min":68.09375,"x_max":348,"ha":418,"o":"m 225 383 l 68 650 l 199 650 l 348 383 l 199 117 l 68 117 l 225 383 "},"k":{"x_min":63,"x_max":837.609375,"ha":872,"o":"m 63 1055 l 310 1055 l 310 938 l 309 938 l 309 413 l 431 413 l 597 586 l 555 586 l 555 703 l 822 703 l 822 586 l 733 586 l 519 365 l 752 116 l 837 117 l 837 0 l 689 0 l 402 314 l 309 314 l 309 117 l 367 117 l 367 0 l 66 0 l 66 117 l 182 117 l 182 938 l 63 938 l 63 1055 "},"<":{"x_min":7,"x_max":579,"ha":679,"o":"m 7 516 l 579 803 l 579 677 l 118 463 l 579 250 l 579 124 l 7 409 l 7 516 "},"t":{"x_min":35,"x_max":482.328125,"ha":517,"o":"m 271 703 l 436 703 l 436 601 l 270 601 l 268 194 q 277 127 268 153 q 308 91 287 101 q 355 82 329 82 q 405 87 383 82 q 453 104 427 92 l 482 19 q 413 -7 449 2 q 329 -17 377 -17 q 248 -5 282 -17 q 191 31 214 5 q 156 102 167 58 q 144 213 144 147 l 147 601 l 35 601 l 35 703 l 148 703 l 148 871 l 271 929 l 271 703 "},"W":{"x_min":7.109375,"x_max":1729.53125,"ha":1736,"o":"m 1395 1028 l 1729 1028 l 1729 911 l 1640 911 l 1346 0 l 1137 0 l 860 895 l 603 0 l 397 0 l 98 911 l 7 911 l 7 1028 l 340 1028 l 340 911 l 251 911 l 500 120 l 762 1028 l 965 1028 l 1244 120 l 1498 911 l 1395 911 l 1395 1028 "},"v":{"x_min":13,"x_max":713,"ha":746,"o":"m 13 703 l 256 703 l 256 586 l 190 586 l 364 102 l 533 586 l 490 586 l 490 703 l 713 703 l 713 586 l 653 586 l 423 -11 l 298 -11 l 69 586 l 13 586 l 13 703 "},">":{"x_min":111,"x_max":683,"ha":778,"o":"m 683 409 l 111 124 l 111 250 l 571 463 l 111 677 l 111 803 l 683 516 l 683 409 "},"s":{"x_min":55.1875,"x_max":612.203125,"ha":673,"o":"m 473 515 q 459 563 473 543 q 425 595 446 583 q 378 614 404 608 q 328 620 352 620 q 278 613 301 620 q 239 596 255 607 q 214 567 223 584 q 205 530 205 551 q 226 474 205 495 q 297 436 247 454 l 433 388 q 559 309 519 359 q 600 189 600 259 q 581 103 600 142 q 528 37 562 64 q 445 -5 494 9 q 338 -21 397 -21 q 205 5 256 -21 q 125 75 153 31 l 55 75 l 55 192 l 195 192 q 208 141 195 162 q 241 108 220 121 q 288 89 262 95 q 341 83 314 83 q 392 89 368 83 q 435 108 416 95 q 465 138 454 121 q 476 178 476 156 q 453 236 476 212 q 378 279 431 260 l 244 329 q 122 404 162 359 q 83 516 83 449 q 99 599 83 561 q 147 665 116 637 q 224 708 179 692 q 328 724 270 724 q 454 703 403 724 q 546 632 505 682 l 612 632 l 612 515 l 473 515 "},"B":{"x_min":97,"x_max":865,"ha":917,"o":"m 97 117 l 195 117 l 195 911 l 97 911 l 97 1030 l 559 1028 q 676 1005 621 1028 q 772 941 731 981 q 836 845 813 900 q 860 727 860 790 q 823 607 860 661 q 718 520 786 553 q 778 479 751 503 q 824 428 806 456 q 854 369 843 400 q 865 305 865 338 q 841 185 865 241 q 777 88 818 130 q 682 23 736 47 q 565 0 627 0 l 97 0 l 97 117 m 328 457 l 328 117 l 567 117 q 627 133 599 117 q 676 175 655 149 q 709 234 697 201 q 721 302 721 268 q 708 360 721 332 q 675 409 696 387 q 627 444 655 431 q 567 457 599 457 l 328 457 m 328 911 l 328 575 l 561 575 q 622 587 593 575 q 670 622 650 600 q 703 672 691 644 q 716 731 716 701 q 703 797 716 765 q 670 854 691 829 q 621 895 649 879 q 561 911 593 911 l 328 911 "},"…":{"x_min":139,"x_max":1250,"ha":1388,"o":"m 139 83 q 146 121 139 103 q 168 153 154 139 q 200 175 182 167 q 238 183 218 183 q 277 175 259 183 q 309 153 296 167 q 331 121 323 139 q 340 83 340 103 q 331 44 340 63 q 309 12 323 26 q 277 -8 296 0 q 238 -17 259 -17 q 200 -8 218 -17 q 168 12 182 0 q 146 44 154 26 q 139 83 139 63 m 594 83 q 601 121 594 103 q 623 153 609 139 q 655 175 637 167 q 693 183 673 183 q 732 175 714 183 q 764 153 751 167 q 786 121 778 139 q 795 83 795 103 q 786 44 795 63 q 764 12 778 26 q 732 -8 751 0 q 693 -17 714 -17 q 655 -8 673 -17 q 623 12 637 0 q 601 44 609 26 q 594 83 594 63 m 1049 83 q 1057 121 1049 103 q 1078 153 1065 139 q 1110 175 1092 167 q 1149 183 1128 183 q 1188 175 1170 183 q 1220 153 1206 167 q 1241 121 1233 139 q 1250 83 1250 103 q 1241 44 1250 63 q 1220 12 1233 26 q 1188 -8 1206 0 q 1149 -17 1170 -17 q 1110 -8 1128 -17 q 1078 12 1092 0 q 1057 44 1065 26 q 1049 83 1049 63 "},"?":{"x_min":82,"x_max":675,"ha":722,"o":"m 230 82 q 237 115 230 100 q 256 143 244 131 q 284 162 268 155 q 318 170 300 170 q 352 162 336 170 q 380 143 368 155 q 399 115 392 131 q 406 82 406 100 q 399 47 406 64 q 380 18 392 31 q 352 0 368 6 q 318 -8 336 -8 q 284 0 300 -8 q 256 18 268 6 q 237 47 244 31 q 230 82 230 64 m 259 228 q 264 347 259 298 q 283 437 269 396 q 322 509 297 478 q 387 573 347 539 q 452 626 423 604 q 503 670 482 648 q 535 716 524 691 q 547 776 547 741 q 534 835 547 806 q 501 885 522 863 q 453 921 481 907 q 393 935 424 935 q 301 916 338 935 q 242 870 264 897 q 210 813 220 843 q 201 762 201 783 l 82 770 q 109 878 85 827 q 174 968 133 929 q 270 1029 214 1006 q 393 1052 326 1052 q 513 1029 461 1052 q 602 969 566 1007 q 656 883 638 932 q 675 780 675 834 q 639 653 675 711 q 534 546 604 594 q 461 488 502 523 q 403 401 420 453 q 383 314 386 349 q 381 228 381 279 l 259 228 "},"H":{"x_min":97,"x_max":1153,"ha":1250,"o":"m 819 1028 l 1153 1028 l 1153 911 l 1055 911 l 1055 117 l 1153 117 l 1153 0 l 819 0 l 819 117 l 922 117 l 922 486 l 328 486 l 328 117 l 431 117 l 431 0 l 97 0 l 97 117 l 195 117 l 195 911 l 97 911 l 97 1028 l 431 1028 l 431 911 l 328 911 l 328 600 l 922 600 l 922 911 l 819 911 l 819 1028 "},"c":{"x_min":62,"x_max":702,"ha":758,"o":"m 574 515 q 502 590 545 566 q 400 614 458 614 q 318 595 356 614 q 250 543 279 577 q 205 460 222 509 q 189 352 189 412 q 205 245 189 293 q 251 164 222 198 q 318 113 280 131 q 400 95 356 95 q 513 126 465 95 q 590 219 562 158 l 695 167 q 644 89 674 124 q 577 30 615 55 q 494 -6 539 6 q 399 -20 449 -20 q 264 7 326 -20 q 157 84 202 34 q 87 202 112 134 q 62 352 62 271 q 88 502 62 433 q 160 620 114 570 q 268 697 206 669 q 400 725 330 725 q 526 701 467 725 q 631 632 586 678 l 702 632 l 702 515 l 574 515 "},"&":{"x_min":97,"x_max":968,"ha":996,"o":"m 874 -4 l 713 150 q 652 85 685 115 q 581 35 618 56 q 501 1 543 13 q 411 -10 458 -10 q 288 13 345 -10 q 188 76 230 36 q 121 170 145 116 q 97 288 97 225 q 109 369 97 330 q 143 442 121 408 q 195 503 165 476 q 287 562 224 530 l 242 605 q 208 643 224 622 q 179 688 191 664 q 158 739 166 713 q 151 791 151 766 q 172 892 151 846 q 229 974 193 939 q 314 1028 265 1008 q 419 1049 363 1049 q 528 1027 478 1049 q 616 971 579 1006 q 673 889 652 936 q 695 791 695 842 q 686 720 695 751 q 663 665 678 689 q 628 620 648 640 q 584 583 607 600 q 536 552 560 566 q 486 526 511 538 l 693 332 q 728 430 715 382 q 749 518 741 479 l 876 518 q 841 386 864 455 q 780 251 817 317 l 968 78 l 874 -4 m 320 451 q 278 425 297 442 q 246 387 260 409 q 225 341 232 366 q 218 291 218 316 q 233 218 218 252 q 275 160 248 184 q 338 121 302 135 q 416 108 374 108 q 482 116 451 108 q 541 141 514 125 q 591 179 568 157 q 633 228 613 202 l 376 477 l 320 451 m 531 696 q 561 740 549 715 q 574 792 574 765 q 561 847 574 820 q 527 893 548 873 q 478 926 506 914 q 419 938 450 938 q 357 926 385 938 q 310 895 330 915 q 279 850 290 876 q 269 793 269 824 q 282 733 269 765 q 333 667 296 701 l 393 611 q 469 648 434 628 q 531 696 504 669 "},"−":{"x_min":35,"x_max":729,"ha":729,"o":"m 35 439 l 729 439 l 729 329 l 35 329 l 35 439 "},"I":{"x_min":97,"x_max":426,"ha":523,"o":"m 97 1028 l 426 1028 l 426 911 l 328 911 l 328 117 l 426 117 l 426 0 l 97 0 l 97 117 l 195 117 l 195 911 l 97 911 l 97 1028 "},"•":{"x_min":104,"x_max":445,"ha":549,"o":"m 104 529 q 117 595 104 564 q 153 650 130 626 q 207 686 176 673 q 274 700 238 700 q 341 686 310 700 q 395 650 372 673 q 431 596 418 627 q 445 529 445 564 q 431 461 445 493 q 395 407 418 430 q 341 371 372 384 q 274 358 310 358 q 207 371 238 358 q 153 407 176 384 q 117 461 130 430 q 104 529 104 493 "},"G":{"x_min":49,"x_max":1016,"ha":1141,"o":"m 890 -3 l 890 202 q 825 108 864 148 q 739 43 787 69 q 638 4 692 17 q 528 -8 584 -8 q 343 25 428 -8 q 190 132 259 59 q 85 306 121 205 q 49 515 49 406 q 85 723 49 625 q 186 893 121 820 q 342 1007 252 966 q 538 1049 433 1049 q 706 1021 636 1049 q 826 953 776 993 q 906 878 876 913 l 972 878 l 972 757 l 826 757 q 706 879 781 834 q 538 923 631 924 q 395 889 460 923 q 283 800 330 856 q 211 670 237 743 q 186 515 186 597 q 214 347 186 425 q 286 222 242 270 q 395 142 331 174 q 539 111 460 111 q 752 174 669 111 q 868 372 835 237 l 581 372 l 581 489 l 1016 489 l 1016 -3 l 890 -3 "},"(":{"x_min":96,"x_max":453.8125,"ha":490,"o":"m 359 -306 q 249 -146 298 -230 q 166 26 201 -62 q 114 210 132 116 q 96 400 96 303 q 114 590 96 496 q 166 773 132 684 q 249 946 201 862 q 359 1106 298 1030 l 453 1031 q 358 888 400 963 q 288 732 316 812 q 244 568 259 652 q 230 400 230 485 q 244 231 230 315 q 288 67 259 147 q 358 -87 316 -12 q 453 -230 400 -162 l 359 -306 "},"`":{"x_min":68,"x_max":361,"ha":400,"o":"m 262 799 l 68 990 l 68 1002 l 236 1002 l 361 799 l 262 799 "},"U":{"x_min":77,"x_max":1049,"ha":1051,"o":"m 77 1028 l 410 1028 l 410 911 l 305 911 l 305 431 q 324 284 305 345 q 377 185 343 224 q 459 129 412 147 q 562 112 506 112 q 669 127 620 112 q 753 180 718 143 q 807 278 788 217 q 827 431 827 340 l 827 911 l 716 911 l 716 1028 l 1049 1028 l 1049 911 l 957 911 l 957 446 q 926 249 957 335 q 841 104 895 163 q 715 16 788 46 q 559 -14 643 -14 q 407 15 478 -14 q 283 103 336 45 q 201 244 231 161 q 171 434 171 327 l 171 911 l 77 911 l 77 1028 "},"F":{"x_min":97,"x_max":833,"ha":843,"o":"m 97 1028 l 833 1028 l 833 737 l 694 737 l 694 911 l 328 911 l 328 581 l 681 581 l 681 467 l 328 467 l 328 117 l 431 117 l 431 0 l 97 0 l 97 117 l 195 117 l 195 911 l 97 911 l 97 1028 "},"r":{"x_min":68,"x_max":573,"ha":651,"o":"m 573 555 l 444 555 l 444 598 q 398 589 421 598 q 354 563 374 580 q 319 519 334 546 q 297 456 303 492 l 297 117 l 416 117 l 416 0 l 68 0 l 68 117 l 165 117 l 165 586 l 68 586 l 68 703 l 292 703 l 292 605 q 319 646 304 627 q 353 678 334 664 q 394 700 372 692 q 444 708 417 708 q 510 708 479 708 q 573 707 541 708 l 573 555 "},":":{"x_min":65,"x_max":241,"ha":355,"o":"m 65 615 q 72 648 65 633 q 91 676 79 664 q 119 695 103 688 q 153 703 135 703 q 187 695 171 703 q 215 676 203 688 q 234 648 227 664 q 241 615 241 633 q 234 580 241 597 q 215 552 227 564 q 187 532 203 539 q 153 525 171 525 q 119 532 135 525 q 91 552 103 539 q 72 580 79 564 q 65 615 65 597 m 65 82 q 72 115 65 100 q 91 143 79 131 q 119 162 103 155 q 153 170 135 170 q 187 162 171 170 q 215 143 203 155 q 234 115 227 131 q 241 82 241 100 q 234 47 241 64 q 215 18 227 31 q 187 0 203 6 q 153 -8 171 -8 q 119 0 135 -8 q 91 18 103 6 q 72 47 79 31 q 65 82 65 64 "},"x":{"x_min":35,"x_max":704,"ha":739,"o":"m 476 117 l 510 117 l 372 276 l 234 117 l 268 117 l 268 0 l 36 0 l 36 117 l 93 117 l 306 365 l 106 586 l 35 586 l 35 703 l 276 703 l 276 586 l 242 586 l 372 437 l 501 586 l 467 586 l 467 703 l 701 703 l 701 586 l 641 586 l 442 356 l 652 117 l 704 117 l 704 0 l 476 0 l 476 117 "},"*":{"x_min":40,"x_max":521,"ha":567,"o":"m 327 878 l 495 933 l 521 852 l 352 798 l 458 652 l 384 604 l 284 744 l 183 606 l 110 653 l 215 797 l 40 852 l 66 937 l 237 882 l 237 1049 l 327 1049 l 327 878 "},"∕":{"x_min":-138,"x_max":649.015625,"ha":542,"o":"m 514 791 l 649 791 l -2 -41 l -138 -41 l 514 791 "},"V":{"x_min":-7,"x_max":1020.5625,"ha":1007,"o":"m 687 1028 l 1020 1028 l 1020 911 l 931 911 l 599 0 l 411 0 l 84 911 l -7 911 l -7 1028 l 327 1028 l 327 911 l 237 911 l 501 118 l 783 911 l 687 911 l 687 1028 "},"μ":{"x_min":107,"x_max":769,"ha":813,"o":"m 691 117 l 769 117 l 769 0 l 564 0 l 564 65 q 460 8 516 28 q 340 -12 404 -12 q 240 4 282 -12 l 240 -319 l 107 -319 l 107 703 l 240 703 l 240 265 q 277 143 240 184 q 384 102 314 102 q 472 116 426 102 q 559 158 518 131 l 559 703 l 691 703 l 691 117 "},"h":{"x_min":68.515625,"x_max":868,"ha":918,"o":"m 78 1055 l 300 1055 l 300 625 l 304 625 q 347 661 323 644 q 399 690 372 678 q 455 709 426 702 q 516 716 484 716 q 618 700 573 716 q 695 652 663 684 q 744 571 727 621 q 762 453 762 521 l 762 117 l 868 117 l 868 0 l 534 0 l 534 117 l 630 117 l 630 437 q 589 560 630 518 q 471 602 548 602 q 383 581 428 602 q 300 529 339 560 l 300 117 l 402 117 l 402 0 l 68 0 l 68 117 l 174 117 l 174 938 l 78 938 l 78 1055 "},"0":{"x_min":60,"x_max":832,"ha":902,"o":"m 444 -12 q 260 28 334 -12 q 142 140 186 69 q 78 307 97 211 q 60 512 60 402 q 85 731 60 629 q 154 895 111 833 q 264 1000 198 957 q 445 1044 330 1044 q 627 1009 554 1044 q 746 903 699 974 q 813 730 794 831 q 832 516 832 629 q 813 309 832 406 q 748 142 794 213 q 629 29 703 70 q 444 -12 554 -12 m 444 109 q 571 141 523 109 q 644 228 620 173 q 681 358 669 284 q 694 516 694 432 q 684 671 694 597 q 647 802 675 745 q 572 893 620 859 q 445 927 523 927 q 318 893 364 927 q 248 811 271 859 q 212 680 225 763 q 199 516 199 597 q 207 358 199 432 q 241 228 215 284 q 316 141 268 173 q 444 109 364 109 "},".":{"x_min":65,"x_max":241,"ha":309,"o":"m 65 82 q 72 115 65 100 q 91 143 79 131 q 119 162 103 155 q 153 170 135 170 q 187 162 171 170 q 215 143 203 155 q 234 115 227 131 q 241 82 241 100 q 234 47 241 64 q 215 18 227 31 q 187 0 203 6 q 153 -8 171 -8 q 119 0 135 -8 q 91 18 103 6 q 72 47 79 31 q 65 82 65 64 "},"”":{"x_min":62,"x_max":609,"ha":697,"o":"m 150 664 l 62 706 l 191 1055 l 320 1002 l 150 664 m 439 664 l 351 706 l 480 1055 l 609 1002 l 439 664 "},"@":{"x_min":98,"x_max":1456,"ha":1567,"o":"m 1078 648 l 1078 198 q 1089 136 1078 157 q 1118 105 1101 115 q 1159 96 1134 96 q 1242 123 1209 96 q 1295 189 1276 150 q 1323 269 1315 228 q 1331 371 1331 310 q 1311 504 1331 440 q 1255 626 1291 569 q 1170 731 1220 684 q 1058 813 1119 779 q 925 867 996 848 q 776 886 853 886 q 628 866 699 886 q 496 810 557 846 q 384 724 434 774 q 298 613 333 674 q 242 481 262 551 q 223 335 223 410 q 242 187 223 258 q 298 55 262 116 q 384 -56 333 -6 q 496 -142 434 -106 q 628 -198 557 -178 q 776 -218 699 -218 q 927 -197 854 -218 q 1062 -139 999 -176 l 1126 -245 q 961 -317 1049 -292 q 776 -343 872 -343 q 596 -318 683 -343 q 433 -250 509 -294 q 296 -144 358 -206 q 190 -7 234 -82 q 122 154 146 67 q 98 335 98 241 q 122 514 98 427 q 190 676 146 600 q 296 813 234 751 q 433 918 358 874 q 596 986 509 962 q 776 1011 683 1011 q 958 987 871 1011 q 1121 922 1046 964 q 1258 821 1196 880 q 1364 691 1320 762 q 1431 539 1407 619 q 1456 371 1456 458 q 1447 278 1456 325 q 1420 188 1438 231 q 1377 109 1403 146 q 1318 44 1352 71 q 1244 0 1284 16 q 1155 -15 1203 -15 q 1051 11 1093 -15 q 985 81 1009 38 q 889 26 942 46 q 773 7 835 7 q 642 31 702 7 q 539 99 583 56 q 472 200 496 143 q 448 324 448 258 q 473 448 448 390 q 542 549 498 506 q 645 618 586 593 q 773 644 705 644 q 868 630 823 644 q 953 591 914 616 l 953 648 l 1078 648 m 773 132 q 883 161 837 132 q 953 237 929 190 l 953 409 q 923 453 941 432 q 882 488 905 473 q 831 510 859 502 q 773 519 804 519 q 693 503 730 519 q 629 461 656 487 q 587 399 602 434 q 573 324 573 363 q 587 249 573 284 q 627 188 601 214 q 690 147 653 162 q 773 132 727 132 "},"f":{"x_min":58,"x_max":588.921875,"ha":505,"o":"m 300 703 l 463 703 l 463 601 l 300 601 l 300 117 l 410 117 l 410 0 l 68 0 l 68 117 l 174 117 l 174 601 l 58 601 l 58 703 l 174 703 l 174 812 q 191 918 175 873 q 237 994 207 964 q 309 1040 267 1025 q 403 1055 351 1055 q 467 1051 439 1055 q 518 1042 496 1048 q 558 1029 540 1036 q 588 1016 575 1023 l 550 926 q 493 945 528 937 q 420 954 458 954 q 332 919 364 954 q 300 816 300 884 l 300 703 "},";":{"x_min":-14,"x_max":261.359375,"ha":357,"o":"m 65 615 q 72 648 65 633 q 91 676 79 664 q 119 695 103 688 q 153 703 135 703 q 187 695 171 703 q 215 676 203 688 q 234 648 227 664 q 241 615 241 633 q 234 580 241 597 q 215 552 227 564 q 187 532 203 539 q 153 525 171 525 q 119 532 135 525 q 91 552 103 539 q 72 580 79 564 q 65 615 65 597 m 111 192 l 261 133 l 83 -231 l -14 -195 l 111 192 "},"“":{"x_min":87,"x_max":651.359375,"ha":722,"o":"m 557 1055 l 651 1012 l 513 664 l 376 716 l 557 1055 m 268 1055 l 362 1012 l 224 664 l 87 716 l 268 1055 "},"i":{"x_min":62,"x_max":398,"ha":446,"o":"m 62 703 l 292 703 l 292 117 l 398 117 l 398 0 l 63 0 l 63 117 l 164 117 l 164 586 l 62 586 l 62 703 m 140 952 q 147 985 140 970 q 165 1013 154 1001 q 193 1032 177 1025 q 228 1040 210 1040 q 262 1032 246 1040 q 290 1013 278 1025 q 309 985 302 1001 q 316 952 316 970 q 309 917 316 934 q 290 888 302 901 q 262 869 278 876 q 228 862 246 862 q 193 869 210 862 q 165 888 177 876 q 147 917 154 901 q 140 952 140 934 "},"6":{"x_min":64,"x_max":781,"ha":847,"o":"m 553 1028 l 322 643 q 397 664 363 661 q 457 667 430 667 q 578 643 519 667 q 681 577 636 620 q 753 476 726 535 q 781 347 781 417 q 751 193 781 260 q 673 80 722 126 q 558 10 623 34 q 419 -14 492 -14 q 286 11 350 -14 q 172 81 222 36 q 93 189 123 126 q 64 330 64 253 q 86 448 64 390 q 143 570 109 507 l 395 1028 l 553 1028 m 404 556 q 321 540 355 556 q 256 497 287 525 q 208 427 226 470 q 191 329 191 385 q 208 234 191 276 q 257 163 226 192 q 331 119 288 134 q 423 104 373 104 q 511 120 469 104 q 585 166 553 136 q 636 237 617 196 q 655 329 655 279 q 634 427 655 385 q 579 498 614 470 q 500 541 545 527 q 404 556 454 556 "},"A":{"x_min":7,"x_max":1039,"ha":1046,"o":"m 705 117 l 791 117 l 709 350 l 314 350 l 234 117 l 340 117 l 340 0 l 7 0 l 7 117 l 96 117 l 416 1028 l 615 1028 l 936 117 l 1039 117 l 1039 0 l 705 0 l 705 117 m 352 463 l 670 463 l 509 922 l 352 463 "},"‘":{"x_min":77,"x_max":352.359375,"ha":428,"o":"m 257 1055 l 352 1012 l 214 664 l 77 716 l 257 1055 "},"n":{"x_min":67,"x_max":859,"ha":926,"o":"m 530 117 l 629 117 l 629 437 q 588 560 629 518 q 470 602 547 602 q 381 580 426 602 q 297 528 336 559 l 297 117 l 396 117 l 396 0 l 67 0 l 67 117 l 165 117 l 165 586 l 67 586 l 67 703 l 291 703 l 291 620 l 292 620 q 340 657 315 639 q 393 688 365 675 q 451 708 421 701 q 515 716 482 716 q 617 700 571 716 q 694 652 662 684 q 743 571 726 621 q 761 453 761 521 l 761 117 l 859 117 l 859 0 l 530 0 l 530 117 "},"O":{"x_min":49,"x_max":1035,"ha":1083,"o":"m 542 -20 q 347 19 435 -20 q 190 132 259 59 q 84 306 120 205 q 49 514 49 406 q 85 723 49 625 q 187 893 121 821 q 342 1007 252 965 q 542 1049 433 1049 q 742 1007 651 1049 q 898 893 832 965 q 999 723 963 821 q 1035 514 1035 625 q 998 305 1035 403 q 897 136 962 208 q 741 21 831 63 q 542 -20 650 -20 m 541 106 q 688 139 622 106 q 799 228 753 172 q 870 358 845 284 q 896 514 896 432 q 868 677 896 598 q 791 809 841 755 q 677 893 742 863 q 541 923 612 923 q 395 889 461 923 q 283 800 329 856 q 212 670 237 744 q 187 514 187 595 q 214 345 187 419 q 288 221 242 270 q 397 139 334 172 q 541 106 461 106 "},"3":{"x_min":28,"x_max":670,"ha":753,"o":"m 529 759 q 517 816 529 786 q 483 872 506 846 q 424 914 459 897 q 340 931 388 931 q 267 917 300 931 q 202 865 234 903 q 166 781 169 827 l 38 781 q 67 887 41 840 q 133 971 93 935 q 227 1027 173 1006 q 339 1049 281 1049 q 471 1024 412 1049 q 571 961 530 1000 q 636 870 613 921 q 659 766 659 819 q 650 701 659 734 q 625 639 642 668 q 580 584 608 609 q 514 540 553 559 q 575 506 546 528 q 624 453 603 484 q 657 384 645 423 q 670 299 670 345 q 644 176 670 233 q 574 78 618 119 q 470 13 530 36 q 343 -10 411 -10 q 219 12 281 -10 q 115 74 158 34 q 52 159 72 115 q 28 246 32 203 l 158 246 q 228 147 177 183 q 356 112 278 112 q 425 126 392 112 q 485 166 459 140 q 526 225 510 191 q 542 301 542 260 q 526 378 542 343 q 484 437 510 413 q 422 474 457 461 q 348 488 387 488 l 290 488 l 290 590 l 337 590 q 417 603 382 590 q 478 639 453 616 q 515 693 502 662 q 529 759 529 724 "},"]":{"x_min":54,"x_max":328,"ha":489,"o":"m 203 1055 l 54 1055 l 54 1157 l 328 1157 l 328 -256 l 54 -256 l 54 -153 l 203 -153 l 203 1055 "},"m":{"x_min":67,"x_max":1323,"ha":1390,"o":"m 67 703 l 291 703 l 291 620 l 292 620 q 341 657 315 640 q 394 688 366 675 q 452 708 422 700 q 515 716 482 716 q 646 687 591 716 q 731 600 701 659 q 785 644 756 623 q 844 681 813 665 q 909 706 875 697 q 980 716 943 716 q 1082 700 1037 716 q 1159 652 1127 684 q 1208 571 1191 621 q 1225 453 1225 521 l 1225 117 l 1323 117 l 1323 0 l 994 0 l 994 117 l 1093 117 l 1093 437 q 1052 560 1093 518 q 935 602 1011 602 q 842 580 889 602 q 761 525 794 558 l 761 117 l 858 117 l 858 0 l 530 0 l 530 117 l 629 117 l 629 437 q 588 560 629 518 q 470 602 547 602 q 381 580 426 602 q 297 528 336 559 l 297 117 l 396 117 l 396 0 l 67 0 l 67 117 l 165 117 l 165 586 l 67 586 l 67 703 "},"9":{"x_min":70,"x_max":786,"ha":861,"o":"m 292 0 l 528 388 q 466 369 494 374 q 407 365 439 365 q 283 388 347 365 q 173 454 219 411 q 99 558 128 496 q 70 684 70 620 q 99 837 70 770 q 177 950 128 904 q 292 1020 227 996 q 431 1045 357 1045 q 567 1020 504 1045 q 680 950 630 996 q 757 841 729 904 q 786 700 786 777 q 763 582 786 640 q 706 460 740 524 l 450 0 l 292 0 m 427 927 q 339 910 381 927 q 265 864 297 894 q 214 793 233 834 q 196 701 196 752 q 216 603 196 646 q 270 532 236 561 q 347 490 304 504 q 432 476 389 476 q 528 491 494 476 q 593 533 562 506 q 641 603 623 561 q 659 701 659 646 q 641 796 659 754 q 592 867 623 838 q 519 911 561 896 q 427 927 476 927 "},"l":{"x_min":62,"x_max":396,"ha":452,"o":"m 62 1055 l 290 1055 l 290 117 l 396 117 l 396 0 l 62 0 l 62 117 l 164 117 l 164 938 l 62 938 l 62 1055 "},"8":{"x_min":94,"x_max":754,"ha":865,"o":"m 427 1047 q 537 1025 486 1047 q 629 968 589 1004 q 691 882 668 931 q 714 777 714 833 q 682 654 714 711 q 599 561 651 598 q 662 513 633 541 q 711 451 690 485 q 742 379 731 418 q 754 299 754 340 q 727 178 754 235 q 657 80 701 122 q 552 13 612 37 q 425 -11 492 -11 q 296 13 356 -11 q 191 80 235 37 q 120 178 146 122 q 94 299 94 235 q 105 379 94 340 q 137 452 116 418 q 186 513 157 485 q 250 562 215 542 q 169 655 199 599 q 139 777 139 711 q 161 882 139 833 q 222 968 183 931 q 314 1025 261 1004 q 427 1047 367 1047 m 218 302 q 234 226 218 262 q 278 164 250 190 q 344 122 306 138 q 425 107 382 107 q 504 122 467 107 q 569 164 541 138 q 614 226 598 190 q 631 302 631 262 q 614 376 631 341 q 569 438 598 411 q 504 479 541 464 q 425 495 467 495 q 344 479 382 495 q 278 438 306 464 q 234 376 250 411 q 218 302 218 341 m 256 774 q 268 711 256 740 q 304 659 281 681 q 359 624 327 637 q 427 612 390 612 q 492 624 462 612 q 546 659 523 637 q 583 711 569 681 q 597 774 597 740 q 583 837 597 808 q 546 889 569 867 q 492 924 523 911 q 427 937 462 937 q 359 924 390 937 q 304 889 327 911 q 268 837 281 867 q 256 774 256 808 "},"p":{"x_min":40,"x_max":785,"ha":847,"o":"m 40 703 l 263 703 l 263 644 q 361 699 308 679 q 470 720 414 720 q 597 694 540 720 q 697 621 655 668 q 761 509 738 574 q 785 364 785 443 q 759 209 785 279 q 687 89 733 139 q 579 11 642 39 q 440 -16 516 -16 q 345 -4 387 -16 q 266 24 303 6 l 266 -202 l 376 -202 l 376 -319 l 41 -319 l 41 -202 l 138 -202 l 138 586 l 40 586 l 40 703 m 438 609 q 344 589 389 609 q 266 534 299 569 l 266 153 q 330 112 288 130 q 434 94 371 94 q 517 110 477 94 q 587 161 557 127 q 636 244 618 195 q 655 359 655 294 q 637 465 655 419 q 590 543 620 511 q 522 592 561 575 q 438 609 482 609 "},"4":{"x_min":60.65625,"x_max":773.28125,"ha":848,"o":"m 62 404 l 428 1028 l 572 1028 l 224 413 l 487 414 l 487 583 l 620 593 l 620 414 l 773 414 l 773 297 l 620 297 l 620 117 l 721 117 l 721 0 l 387 0 l 387 117 l 487 117 l 487 297 l 60 297 l 62 404 "},"R":{"x_min":97,"x_max":918.203125,"ha":989,"o":"m 97 1028 l 525 1028 q 651 1010 593 1028 q 752 957 709 992 q 818 870 794 922 q 842 750 842 818 q 828 674 842 711 q 789 604 814 636 q 730 547 764 572 q 656 508 696 522 q 691 487 673 501 q 723 453 708 473 q 751 407 738 433 q 771 353 763 382 l 828 129 l 916 129 l 918 0 l 718 0 l 641 313 q 577 437 620 397 q 460 477 534 477 l 328 477 l 328 117 l 431 117 l 431 0 l 97 0 l 97 117 l 195 117 l 195 911 l 97 911 l 97 1028 m 328 911 l 328 588 l 525 588 q 596 598 564 588 q 652 628 628 608 q 688 679 675 648 q 702 749 702 709 q 655 868 702 825 q 509 911 609 911 l 328 911 "},"o":{"x_min":58,"x_max":762,"ha":831,"o":"m 58 351 q 84 503 58 434 q 157 620 110 571 q 268 696 204 670 q 410 723 333 723 q 553 696 488 723 q 664 621 618 670 q 736 504 710 573 q 762 352 762 436 q 736 201 762 270 q 664 83 710 132 q 553 6 618 33 q 410 -21 488 -21 q 266 6 331 -21 q 156 82 202 33 q 84 200 110 131 q 58 351 58 268 m 192 351 q 209 242 192 291 q 256 159 226 193 q 326 106 286 125 q 410 88 366 88 q 498 106 457 88 q 568 158 538 124 q 615 241 598 192 q 632 351 632 290 q 615 464 632 414 q 568 546 598 513 q 498 597 539 580 q 410 614 457 614 q 326 597 366 614 q 256 546 286 580 q 209 464 226 513 q 192 351 192 414 "},"5":{"x_min":50.09375,"x_max":731,"ha":773,"o":"m 215 606 q 293 645 253 632 q 384 659 333 659 q 524 631 460 659 q 634 558 588 604 q 705 450 680 512 q 731 321 731 389 q 705 189 731 251 q 634 80 680 127 q 523 6 588 33 q 379 -21 458 -21 q 266 -5 318 -21 q 172 39 214 11 q 99 108 130 68 q 50 196 68 148 l 161 252 q 193 187 172 217 q 242 137 214 158 q 306 103 271 115 q 379 92 340 92 q 470 109 428 92 q 542 159 511 127 q 591 231 573 190 q 609 321 609 273 q 591 410 609 369 q 542 481 573 451 q 469 528 511 511 q 379 546 427 546 q 279 526 325 546 q 202 474 233 507 l 103 490 l 103 1028 l 683 1028 l 683 915 l 215 915 l 215 606 "}}}
